<?xml version="1.0" standalone="no"?>
<!DOCTYPE svg PUBLIC "-//W3C//DTD SVG 20010904//EN"
 "http://www.w3.org/TR/2001/REC-SVG-20010904/DTD/svg10.dtd">
<svg version="1.0" xmlns="http://www.w3.org/2000/svg"
 width="700.000000pt" height="700.000000pt" viewBox="0 0 700.000000 700.000000"
 preserveAspectRatio="xMidYMid meet">
<metadata>
Created by potrace 1.14, written by Peter Selinger 2001-2017
</metadata>
<g transform="translate(0.000000,700.000000) scale(0.100000,-0.100000)"
fill="#000000" stroke="none">
<path d="M607 6123 c-1 0 -27 -4 -57 -8 -126 -16 -289 -105 -382 -210 -57 -64
-106 -148 -135 -232 l-28 -78 -2 -2070 c-2 -2315 -7 -2139 70 -2290 95 -187
280 -322 482 -352 74 -11 5843 -10 5902 1 208 38 387 176 478 368 67 142 63
-2 64 2243 1 2234 4 2109 -58 2241 -91 195 -243 320 -451 371 -59 15 -343 16
-2973 17 -1600 1 -2909 0 -2910 -1z m5799 -449 c34 -9 65 -27 88 -50 74 -74
68 113 69 -2104 0 -1097 -3 -2013 -7 -2035 -12 -61 -57 -118 -121 -153 -28
-16 -252 -17 -2915 -19 -3192 -2 -2942 -7 -3014 63 -74 72 -68 -118 -68 2124
0 2240 -6 2051 67 2124 68 68 -159 63 2990 64 2452 1 2867 -1 2911 -14z"/>
<path d="M1524 4809 c-76 -7 -102 -18 -146 -62 -61 -60 -62 -69 -65 -347 -1
-148 2 -272 8 -295 16 -62 57 -114 113 -142 l51 -26 1995 0 c1097 0 2013 3
2035 7 61 12 118 57 153 121 15 26 17 68 17 310 0 310 -1 314 -69 377 -69 64
90 59 -2061 61 -1078 1 -1992 -1 -2031 -4z"/>
<path d="M1445 3480 c-104 -50 -151 -147 -124 -255 16 -64 86 -137 146 -152
61 -15 3991 -16 4056 0 57 13 117 61 141 112 50 105 7 236 -97 293 -30 16
-150 17 -2057 19 -1979 3 -2026 2 -2065 -17z"/>
<path d="M1470 2614 c-157 -46 -208 -241 -94 -358 70 -72 -40 -67 1466 -67
1324 -1 1358 0 1401 19 177 79 171 329 -10 404 -40 16 -2708 18 -2763 2z"/>
</g>
</svg>
