<?xml version="1.0" standalone="no"?>
<!DOCTYPE svg PUBLIC "-//W3C//DTD SVG 20010904//EN"
 "http://www.w3.org/TR/2001/REC-SVG-20010904/DTD/svg10.dtd">
<svg version="1.0" xmlns="http://www.w3.org/2000/svg"
 width="700.000000pt" height="700.000000pt" viewBox="0 0 700.000000 700.000000"
 preserveAspectRatio="xMidYMid meet">
<metadata>
Created by potrace 1.14, written by Peter Selinger 2001-2017
</metadata>
<g transform="translate(0.000000,700.000000) scale(0.100000,-0.100000)"
fill="#000000" stroke="none">
<path d="M2547 6124 c-1 -1 -27 -4 -57 -7 -513 -51 -960 -415 -1115 -907 -25
-81 -33 -117 -51 -220 -15 -85 -9 -320 10 -410 10 -47 19 -89 20 -95 21 -98
108 -294 176 -396 161 -241 395 -422 665 -516 61 -21 101 -32 180 -49 88 -19
326 -25 433 -11 181 24 381 100 540 205 86 57 235 189 283 252 18 25 36 47 40
50 15 13 89 131 113 180 15 30 32 63 37 73 69 129 118 379 114 572 -15 655
-516 1201 -1167 1271 -51 6 -217 12 -221 8z"/>
<path d="M4945 5669 c-108 -53 -156 -164 -118 -274 18 -54 86 -119 139 -134
27 -7 334 -11 950 -11 l912 0 53 28 c77 40 114 102 114 191 -1 74 -17 113 -67
160 -65 60 -30 58 -1029 58 -877 0 -917 0 -954 -18z"/>
<path d="M4972 4364 c-104 -27 -171 -127 -156 -235 11 -81 48 -130 127 -171
l42 -21 920 0 c1015 0 955 -3 1026 64 107 102 82 275 -51 349 l-45 24 -909 1
c-638 0 -923 -3 -954 -11z"/>
<path d="M2607 3064 c-1 -1 -85 -4 -187 -8 -179 -6 -208 -8 -315 -21 -27 -3
-70 -8 -95 -11 -40 -4 -210 -34 -284 -49 -161 -33 -316 -79 -476 -142 -100
-39 -156 -65 -305 -141 -70 -36 -244 -155 -320 -221 -272 -232 -451 -487 -555
-792 -34 -99 -34 -97 -55 -219 -18 -102 -13 -246 10 -310 48 -136 168 -233
329 -267 17 -3 1032 -7 2256 -8 1813 -1 2237 2 2290 12 191 39 312 158 341
335 10 58 7 188 -5 248 -82 396 -282 723 -614 1003 -52 43 -134 104 -181 134
-47 30 -97 62 -111 71 -14 9 -27 17 -30 18 -3 0 -62 29 -133 63 -166 81 -415
169 -558 196 -11 2 -28 6 -37 9 -9 3 -28 7 -42 10 -14 3 -50 10 -80 16 -30 6
-71 13 -90 16 -19 3 -46 7 -59 9 -13 2 -69 9 -125 15 -56 6 -114 13 -131 15
-34 5 -434 22 -438 19z"/>
<path d="M5872 3058 c-55 -9 -93 -30 -129 -72 -78 -89 -68 -230 22 -309 58
-50 56 -50 580 -51 l490 -1 45 25 c159 89 156 312 -5 390 -44 22 -54 22 -504
23 -253 1 -477 -1 -499 -5z"/>
<path d="M5825 1734 c-51 -19 -112 -84 -126 -137 -27 -102 12 -203 100 -255
l46 -27 480 -1 c529 -1 545 0 604 58 50 49 65 85 66 159 0 89 -37 151 -114
191 l-53 28 -482 -1 c-394 0 -488 -3 -521 -15z"/>
</g>
</svg>
